<svg width="178" height="16" viewBox="0 0 178 16" fill="none" xmlns="http://www.w3.org/2000/svg">
<path d="M101.957 11.7973C101.957 12.3627 101.882 12.8686 101.747 13.315C101.598 13.7465 101.404 14.1185 101.135 14.416C100.865 14.7136 100.552 14.9368 100.178 15.0856C99.804 15.2344 99.3705 15.3088 98.8921 15.3088C98.6679 15.3088 98.4586 15.2939 98.2343 15.2642C98.0101 15.2344 97.7858 15.1749 97.5466 15.1005C97.5616 15.041 97.5616 14.9666 97.5765 14.8922C97.5765 14.8327 97.5915 14.7583 97.5915 14.6839C97.6064 14.6392 97.6214 14.5946 97.6513 14.5648C97.6812 14.5351 97.726 14.5202 97.7858 14.5202C97.8307 14.5202 97.8755 14.5351 97.9353 14.55C97.9951 14.5648 98.0699 14.5797 98.1446 14.6095C98.2343 14.6244 98.324 14.6541 98.4287 14.669C98.5333 14.6839 98.6678 14.6988 98.8024 14.6988C99.1761 14.6988 99.505 14.6392 99.7891 14.5202C100.088 14.4012 100.327 14.2226 100.537 13.9994C100.746 13.7762 100.895 13.4638 101.015 13.1067C101.12 12.7496 101.179 12.3181 101.179 11.8271V5.01236H101.927V11.7973H101.957Z" fill="white"/>
<path d="M108.624 14.6541C109.118 14.6541 109.551 14.5648 109.94 14.4012C110.329 14.2375 110.658 13.9994 110.927 13.687C111.196 13.3894 111.405 13.0323 111.54 12.6157C111.689 12.199 111.749 11.7675 111.749 11.2914V5.01236H112.481V11.3063C112.481 11.8717 112.392 12.3925 112.212 12.8835C112.033 13.3745 111.779 13.7911 111.45 14.1631C111.121 14.5202 110.702 14.8029 110.224 15.0112C109.761 15.2046 109.222 15.3088 108.624 15.3088C108.026 15.3088 107.488 15.2046 107.01 14.9963C106.531 14.788 106.128 14.5053 105.784 14.1482C105.455 13.7911 105.186 13.3596 105.022 12.8686C104.842 12.3776 104.752 11.8568 104.752 11.2914V5.01236H105.5V11.2914C105.5 11.7675 105.575 12.2139 105.709 12.6157C105.859 13.0323 106.053 13.3745 106.322 13.687C106.591 13.9845 106.92 14.2226 107.309 14.4012C107.697 14.5797 108.131 14.6541 108.624 14.6541Z" fill="white"/>
<path d="M120.255 6.24811C120.21 6.33739 120.151 6.36715 120.061 6.36715C120.001 6.36715 119.911 6.32251 119.822 6.23324C119.717 6.14396 119.582 6.0398 119.418 5.93565C119.254 5.8315 119.044 5.72734 118.79 5.63807C118.536 5.54879 118.222 5.50415 117.848 5.50415C117.475 5.50415 117.146 5.56367 116.862 5.66782C116.578 5.77198 116.338 5.92077 116.144 6.09932C115.95 6.27787 115.8 6.48618 115.71 6.73913C115.606 6.9772 115.561 7.23014 115.561 7.49797C115.561 7.84019 115.636 8.1229 115.785 8.36097C115.935 8.58415 116.129 8.77758 116.368 8.94125C116.607 9.10493 116.877 9.23884 117.19 9.34299C117.489 9.44715 117.818 9.5513 118.132 9.67034C118.461 9.77449 118.775 9.89353 119.074 10.0126C119.373 10.1316 119.657 10.2953 119.896 10.4887C120.136 10.6821 120.33 10.9202 120.479 11.2029C120.629 11.4856 120.704 11.8278 120.704 12.2444C120.704 12.6759 120.629 13.0777 120.479 13.4497C120.33 13.8216 120.121 14.149 119.837 14.4317C119.553 14.7144 119.209 14.9227 118.805 15.0864C118.416 15.2203 117.953 15.3096 117.43 15.3096C116.757 15.3096 116.174 15.1905 115.681 14.9525C115.187 14.7144 114.769 14.3871 114.395 13.9853L114.604 13.6729C114.664 13.5985 114.724 13.5687 114.813 13.5687C114.858 13.5687 114.918 13.5985 114.978 13.658C115.053 13.7175 115.127 13.7919 115.217 13.8663C115.307 13.9556 115.426 14.0448 115.561 14.1341C115.696 14.2383 115.86 14.3275 116.024 14.4019C116.204 14.4912 116.413 14.5507 116.637 14.6102C116.877 14.6698 117.131 14.6995 117.43 14.6995C117.833 14.6995 118.192 14.64 118.521 14.521C118.835 14.4019 119.104 14.2383 119.328 14.0151C119.553 13.8068 119.717 13.5538 119.837 13.2562C119.956 12.9735 120.016 12.6611 120.016 12.3188C120.016 11.9617 119.941 11.6642 119.792 11.4261C119.642 11.188 119.448 10.9946 119.209 10.8458C118.969 10.697 118.7 10.5631 118.401 10.4589C118.087 10.3548 117.774 10.2506 117.46 10.1465C117.131 10.0423 116.817 9.93816 116.518 9.80425C116.219 9.68522 115.935 9.52155 115.695 9.32812C115.456 9.13469 115.262 8.89662 115.112 8.59903C114.963 8.31633 114.888 7.94435 114.888 7.51285C114.888 7.17063 114.948 6.84328 115.083 6.53082C115.217 6.21836 115.397 5.93565 115.651 5.69758C115.905 5.45951 116.219 5.26608 116.578 5.11729C116.951 4.9685 117.37 4.8941 117.848 4.8941C118.371 4.8941 118.85 4.98338 119.283 5.14705C119.702 5.31072 120.091 5.56367 120.435 5.92077L120.255 6.24811Z" fill="white"/>
<path d="M129.389 5.01236V5.63729H125.802V15.1898H125.069V5.63729H121.451V5.01236H129.389Z" fill="white"/>
<path d="M141.544 15.1898H140.796V10.3094H134.398V15.1898H133.65V5.01236H134.398V9.75885H140.796V5.01236H141.544V15.1898Z" fill="white"/>
<path d="M153.563 10.1018C153.563 10.8904 153.444 11.6046 153.204 12.2444C152.965 12.8843 152.636 13.4348 152.203 13.8812C151.769 14.3275 151.261 14.6846 150.663 14.9376C150.065 15.1905 149.407 15.3096 148.675 15.3096C147.957 15.3096 147.299 15.1905 146.701 14.9376C146.103 14.6846 145.595 14.3424 145.161 13.8812C144.728 13.4348 144.399 12.8843 144.16 12.2444C143.935 11.5898 143.816 10.8756 143.816 10.1018C143.816 9.31324 143.935 8.61391 144.175 7.97411C144.414 7.3343 144.743 6.78377 145.176 6.33739C145.61 5.87613 146.118 5.53391 146.716 5.28096C147.314 5.01314 147.972 4.8941 148.689 4.8941C149.422 4.8941 150.08 5.01314 150.678 5.26608C151.276 5.51903 151.784 5.86125 152.218 6.32251C152.651 6.78377 152.98 7.3343 153.219 7.95923C153.443 8.59903 153.563 9.31324 153.563 10.1018ZM152.801 10.1018C152.801 9.38763 152.696 8.74783 152.502 8.18241C152.307 7.617 152.023 7.14087 151.664 6.73913C151.306 6.33739 150.872 6.03981 150.364 5.8315C149.856 5.62319 149.302 5.51903 148.675 5.51903C148.062 5.51903 147.508 5.62319 147.015 5.8315C146.507 6.03981 146.073 6.33739 145.715 6.73913C145.356 7.12599 145.072 7.617 144.862 8.18241C144.668 8.74783 144.563 9.38763 144.563 10.1018C144.563 10.816 144.668 11.4558 144.862 12.0213C145.057 12.5867 145.341 13.0628 145.715 13.4497C146.073 13.8365 146.507 14.149 147.015 14.3424C147.523 14.5507 148.077 14.6549 148.675 14.6549C149.287 14.6549 149.856 14.5507 150.364 14.3424C150.872 14.1341 151.306 13.8365 151.664 13.4497C152.023 13.0628 152.307 12.5718 152.502 12.0213C152.696 11.441 152.801 10.816 152.801 10.1018Z" fill="white"/>
<path d="M161.636 5.01236V5.63729H158.048V15.1898H157.315V5.63729H153.698V5.01236H161.636Z" fill="white"/>
<path d="M169.395 5.01236V5.62241H164.013V9.74397H168.498V10.3391H164.013V14.5797H169.395V15.1898H163.265V5.01236H169.395Z" fill="white"/>
<path d="M172.4 14.5648H177.243V15.1898H171.652V5.01236H172.385V14.5648H172.4Z" fill="white"/>
<path d="M0 0.430328H9.14923V3.1681H3.66868V5.59342H8.01119V8.31631H3.66868V14.9822H0V0.430328Z" fill="white"/>
<path d="M13.7462 10.1316V14.9972H10.2423V5.28101H13.5216L13.6264 6.99212C14.1206 5.90594 15.4383 5.01318 17.0855 5.01318V8.25686C15.3784 7.70633 13.7462 8.46517 13.7462 10.1316Z" fill="white"/>
<path d="M26.0401 14.9971L25.9502 13.6282C25.1117 14.8037 23.6442 15.2649 22.5062 15.2649C19.8857 15.2649 17.984 13.1521 17.984 10.1316C17.984 7.1409 19.8857 4.99829 22.5062 4.99829C23.6442 4.99829 25.1117 5.47443 25.9502 6.635L26.0401 5.26612H29.2745V14.9822H26.0401V14.9971ZM23.6891 7.48312C22.4463 7.48312 21.4879 8.45027 21.4879 10.1316C21.4879 11.813 22.4463 12.7801 23.6891 12.7801C24.932 12.7801 25.8903 11.813 25.8903 10.1316C25.8754 8.45027 24.932 7.48312 23.6891 7.48312Z" fill="white"/>
<path d="M31.6854 5.281H34.9647L35.0845 7.00699C35.6685 5.72737 37.1959 4.99829 38.4986 4.99829C41.1042 4.99829 42.1224 6.79868 42.1224 9.20912V14.9971H38.6184V9.84893C38.6184 8.27173 38.1842 7.70631 37.1659 7.70631C36.0728 7.70631 35.1894 8.74786 35.1894 9.86381V14.9971H31.6854V5.281V5.281Z" fill="white"/>
<path d="M43.9342 10.1168C43.9342 7.0814 46.2403 5.01318 49.1453 5.01318C50.6577 5.01318 51.9454 5.40004 52.7241 5.98033V8.45028C51.9305 7.7956 51.0769 7.55753 50.1186 7.55753C48.6062 7.55753 47.4532 8.52468 47.4532 10.1168C47.4532 11.7535 48.6062 12.7206 50.1186 12.7206C51.0769 12.7206 51.9754 12.4528 52.7241 11.7981V14.2978C51.9604 14.9079 50.6577 15.265 49.1453 15.265C46.2403 15.265 43.9342 13.1521 43.9342 10.1168Z" fill="white"/>
<path d="M54.6408 0.430328H58.1447V6.79865C58.7587 5.74222 60.2261 4.99826 61.454 4.99826C64.0595 4.99826 65.0778 6.79865 65.0778 9.20909V14.9971H61.5738V9.8489C61.5738 8.2717 61.1396 7.70629 60.1213 7.70629C59.0282 7.70629 58.1447 8.74783 58.1447 9.86378V14.9971H54.6408V0.430328V0.430328Z" fill="white"/>
<path d="M67.4437 14.9971V5.28097H70.9477V14.9971H67.4437ZM69.1957 3.91207C68.2224 3.91207 67.4437 3.13835 67.4437 2.1712C67.4437 1.20405 68.2224 0.430328 69.1957 0.430328C70.169 0.430328 70.9477 1.20405 70.9477 2.1712C70.9477 3.13835 70.169 3.91207 69.1957 3.91207Z" fill="#CC1C0A"/>
<path d="M72.6547 14.1638L73.1489 11.9171C74.0473 12.4527 75.1854 13.0628 76.6978 13.0628C77.5513 13.0628 78.0604 12.8545 78.0604 12.3188C78.0604 11.7534 77.4465 11.7088 76.3833 11.4856C73.673 10.9946 72.9243 9.55129 72.9243 8.09313C72.9243 6.54569 74.1521 4.98337 76.9972 4.98337C78.5995 4.98337 79.9921 5.59342 80.621 5.90588L80.0969 8.04849C79.0936 7.48308 78.1053 7.21525 77.147 7.21525C76.3533 7.21525 75.964 7.42356 75.964 7.8253C75.964 8.30143 76.5031 8.40559 77.2817 8.56926C80.2017 9.10491 81.1151 10.5036 81.1151 11.8278C81.1151 13.9407 79.6177 15.3095 76.8175 15.3095C74.8859 15.3095 73.4184 14.6102 72.6547 14.1638Z" fill="white"/>
<path d="M91.7318 10.5185H85.7272C85.7571 11.7535 86.4759 12.8992 88.6022 12.8992C89.7103 12.8992 90.9831 12.4528 91.7019 11.8576V14.1193C90.8034 14.8186 89.3959 15.265 87.5391 15.265C84.4095 15.265 82.2682 13.0777 82.2682 10.0721C82.2682 6.96236 84.7389 5.01318 87.3594 5.01318C89.89 5.01318 91.8816 6.54574 91.8816 8.92642C91.8965 9.41743 91.8366 10.1763 91.7318 10.5185ZM88.8418 8.89666C89.0664 7.88487 88.5873 6.97724 87.4342 6.97724C86.6256 6.97724 85.9818 7.46826 85.8021 8.89666H88.8418Z" fill="white"/>
</svg>
